<svg width="580" height="400" xmlns="http://www.w3.org/2000/svg">
 <!-- Created with Method Draw - http://github.com/duopixel/Method-Draw/ -->

 <g>
  <title>background</title>
  <rect fill="#fff" id="canvas_background" height="402" width="582" y="-1" x="-1"/>
  <g display="none" overflow="visible" y="0" x="0" height="100%" width="100%" id="canvasGrid">
   <rect fill="url(#gridpattern)" stroke-width="0" y="0" x="0" height="100%" width="100%"/>
  </g>
 </g>
 <g>
  <title>Layer 1</title>
  <metadata transform="matrix(0.025082280324739692,0,0,0.025082280324739692,0,0) " id="svg_27">image/svg+xml</metadata>

  <g stroke="null" id="svg_29">
   <g stroke="null" transform="matrix(1.1751188486897226,0,0,1.1751188486897226,-12404.361731217607,-8614.564979690935) " id="svg_16">
    <path stroke="null" fill="#000200" fill-rule="evenodd" d="m10802.618389,7330.92004c93.916,0 170.0787,76.1626 170.0787,170.0787c0,93.9161 -76.1627,170.0787 -170.0787,170.0787c-93.9161,0 -170.0788,-76.1626 -170.0788,-170.0787c0,-93.9161 76.1627,-170.0787 170.0788,-170.0787z" id="svg_26"/>
    <path stroke="null" fill="#ffffff" fill-rule="evenodd" d="m10802.618389,7336.86684c90.6324,0 164.1319,73.4995 164.1319,164.1319c0,90.6324 -73.4995,164.1319 -164.1319,164.1319c-90.6324,0 -164.132,-73.4995 -164.132,-164.1319c0,-90.6324 73.4996,-164.1319 164.132,-164.1319z" id="svg_25"/>
    <path stroke="null" fill="#000200" fill-rule="evenodd" d="m10802.618389,7380.67374c66.4424,0 120.325,53.8826 120.325,120.325c0,66.4424 -53.8826,120.325 -120.325,120.325c-66.4424,0 -120.3251,-53.8826 -120.3251,-120.325c0,-66.4424 53.8827,-120.325 120.3251,-120.325z" id="svg_24"/>
    <path stroke="null" fill="#ffffff" fill-rule="evenodd" d="m10802.618389,7386.96154c62.9705,0 114.0372,51.0667 114.0372,114.0372c0,62.9705 -51.0667,114.0372 -114.0372,114.0372c-62.9705,0 -114.0372,-51.0667 -114.0372,-114.0372c0,-62.9705 51.0667,-114.0372 114.0372,-114.0372z" id="svg_23"/>
    <path stroke="null" fill="#e30016" fill-rule="evenodd" d="m10772.481589,7611.00014c-48.3494,-13.2214 -83.9005,-57.464 -83.9005,-110.0014c0,-52.5374 35.5511,-96.7814 83.9005,-110.0028l0,220.0042z" id="svg_22"/>
    <path stroke="null" fill="#008bd0" fill-rule="evenodd" d="m10832.755089,7611.00014c48.3494,-13.2214 83.9005,-57.464 83.9005,-110.0014c0,-52.5374 -35.5511,-96.7814 -83.9005,-110.0028l0,220.0042z" id="svg_21"/>
    <path stroke="null" fill="#000200" fill-rule="evenodd" d="m10667.434089,7563.02924l-3.6819,-8.2695l3.7568,-1.6727l1.5069,3.3846l3.5589,-1.5843l-1.3414,-3.0127l3.5748,-1.5913l1.341,3.0123l7.886,-3.511l2.1748,4.885l-18.7759,8.3596zm-4.9688,-11.7561l-2.6062,-8.524l3.9325,-1.2022l1.0426,3.4103l3.7256,-1.1389l-0.9757,-3.191l3.742,-1.144l0.9757,3.1909l4.3223,-1.3215l-1.1467,-3.7499l3.9325,-1.2025l2.71,8.8637l-19.6546,6.0091zm-3.5368,-11.8049l-0.8997,-3.8973c-0.5808,-2.5163 -0.8586,-4.2401 -0.8314,-5.18c0.0278,-0.9403 0.2474,-1.7028 0.6687,-2.2851c0.4206,-0.5859 0.9459,-1.0097 1.5641,-1.277c0.6197,-0.2633 1.8771,-0.6159 3.7772,-1.0545l7.0132,-1.6191c1.7986,-0.4153 3.0172,-0.6075 3.6655,-0.5749c0.6426,0.0295 1.1868,0.2106 1.6262,0.5542c0.4397,0.3433 0.796,0.8079 1.0777,1.3924c0.2784,0.5893 0.5604,1.5026 0.8479,2.7482l1.5168,6.5695l-20.0262,4.6236zm2.2215,-6.0009l13.1735,-3.0413c-0.1727,-0.7472 -0.4278,-1.1775 -0.7674,-1.2815c-0.3441,-0.1029 -1.1826,0.002 -2.5166,0.3098l-7.7817,1.7966c-0.9079,0.2097 -1.4794,0.3727 -1.7246,0.487c-0.2395,0.1173 -0.3994,0.2922 -0.4697,0.5264c-0.0705,0.2341 -0.0442,0.6375 0.0865,1.203zm-5.2475,-9.8192l-1.2404,-8.8265l4.0722,-0.5724l0.4964,3.5314l3.8576,-0.5422l-0.4643,-3.3041l3.8747,-0.5445l0.4646,3.304l4.4756,-0.629l-0.5457,-3.8831l4.0723,-0.5724l1.29,9.1786l-20.353,2.8602zm-1.7286,-13.5306l0,-3.7829c0,-2.522 0.0953,-4.2293 0.2903,-5.1219c0.195,-0.8929 0.6934,-1.6208 1.4907,-2.1841c0.8017,-0.5632 2.0756,-0.845 3.8305,-0.845c1.599,0 2.6739,0.1993 3.2241,0.5981c0.5502,0.3943 0.8796,1.1787 0.9879,2.3485c0.2645,-1.0573 0.6154,-1.7722 1.0573,-2.1362c0.4377,-0.3597 0.8408,-0.5893 1.209,-0.676c0.3685,-0.091 1.3825,-0.1344 3.0421,-0.1344l5.421,0l0,4.9618l-6.8292,0c-1.1007,0 -1.781,0.091 -2.0455,0.2642c-0.2599,0.1734 -0.3943,0.6284 -0.3943,1.3606l9.269,0l0,5.3473l-20.5529,0zm3.5144,-5.3473l4.5715,0c0,-0.5978 -0.0822,-1.0182 -0.2469,-1.2609c-0.1647,-0.2426 -0.7022,-0.3639 -1.6078,-0.3639l-1.1265,0c-0.6543,0 -1.0792,0.1168 -1.2827,0.3509c-0.2038,0.2339 -0.3076,0.6585 -0.3076,1.2739zm-2.8377,-19.6747l20.7411,-1.2566l-0.4768,5.4524l-3.7055,-0.0589l-0.1672,1.9125l3.6547,0.6372l-0.4825,5.5126l-20.2376,-4.4981l0.6738,-7.7011zm12.9194,3.971c-2.3419,0.0689 -5.2319,0.0856 -8.6615,0.0596c3.8681,0.8821 6.7011,1.4694 8.5022,1.762l0.1593,-1.8216zm9.6509,-12.4245l0.2347,0.0414c0.0799,-0.4527 0.3022,-0.8402 0.6619,-1.1597c0.3654,-0.3228 0.7996,-0.4399 1.3073,-0.3503c0.6316,0.1114 1.1367,0.4646 1.5066,1.0621c0.3742,0.5984 0.4955,1.258 0.3691,1.9749c-0.2296,1.3017 -1.0327,2.0135 -2.4146,2.1393l0.3266,-1.8519c0.3705,-0.0535 0.5819,-0.2318 0.6347,-0.5303c0.0445,-0.252 0.0127,-0.4465 -0.0899,-0.5879c-0.102,-0.1457 -0.2789,-0.2387 -0.5309,-0.2829c-0.273,-0.0482 -0.4975,0.0003 -0.6639,0.1468c-0.1667,0.1468 -0.2809,0.3949 -0.3427,0.745l-0.0573,0.3242l-1.2503,-0.2205c-0.3836,1.402 -0.9726,2.4466 -1.7567,3.1269c-0.7854,0.6843 -1.665,1.057 -2.635,1.1194c-0.9669,0.0672 -2.3273,-0.0541 -4.0811,-0.3634l-5.9105,-1.042c-1.4593,-0.2574 -2.543,-0.5012 -3.2553,-0.7282c-0.7118,-0.2308 -1.364,-0.6494 -1.9502,-1.2677c-0.5871,-0.614 -0.9993,-1.3949 -1.2325,-2.3425c-0.2291,-0.9471 -0.2472,-1.9931 -0.0463,-3.1323c0.2739,-1.5537 0.8025,-2.7802 1.5778,-3.6822c0.7793,-0.9009 1.6427,-1.4307 2.5954,-1.5925c0.9519,-0.1582 2.3752,-0.0698 4.2656,0.2636l1.9244,0.3393l-0.9277,5.262l-3.5249,-0.6217c-1.0242,-0.1806 -1.6747,-0.2338 -1.9503,-0.1681c-0.2715,0.0666 -0.443,0.2917 -0.5108,0.6758c-0.0765,0.4351 0.0287,0.7356 0.315,0.9091c0.2911,0.1703 0.9462,0.3472 1.9703,0.5281l9.4014,1.6577c0.9859,0.1737 1.6364,0.2267 1.9556,0.1641c0.324,-0.0661 0.5193,-0.3002 0.5913,-0.7095c0.0695,-0.3929 -0.0348,-0.6752 -0.3166,-0.8481c-0.2778,-0.1721 -0.9709,-0.3603 -2.0801,-0.5559l-2.535,-0.447l0.9278,-5.2617l0.7852,0.1383c1.942,0.3424 3.3171,0.7039 4.1204,1.0871c0.8037,0.3838 1.4831,1.0979 2.0333,2.1453c0.5502,1.0474 0.7353,2.3428 0.5582,3.8959zm-16.2332,-22.3605l20.6002,2.7241l-1.5086,5.2611l-3.6261,-0.7648l-0.5292,1.8453l3.4659,1.323l-1.525,5.3192l-19.008,-8.2769l2.1308,-7.431zm11.9248,6.3632c-2.3122,-0.379 -5.1523,-0.9142 -8.5139,-1.5942c3.6287,1.6041 6.2975,2.721 8.0096,3.3519l0.5043,-1.7577zm-14.4536,-8.6437c0.7143,0.6063 1.1566,1.2331 1.3252,1.872c0.1684,0.6389 0.1933,1.1648 0.0751,1.5769c-0.1661,0.5791 -0.4773,1.1616 -0.9405,1.7544l-0.6078,0.7993c-0.4033,0.5111 -0.6443,0.9108 -0.7253,1.194c-0.1732,0.6041 0.0887,1.2158 0.7939,1.8371l-1.836,1.5608c-1.3217,-1.3482 -1.8198,-2.5821 -1.4986,-3.7026c0.1683,-0.5871 0.4802,-1.1875 0.9365,-1.8051l0.5009,-0.6767c0.4147,-0.5663 0.6596,-0.9652 0.7243,-1.1899c0.1947,-0.6789 -0.044,-1.23 -0.7141,-1.6609l1.9664,-1.5593zm20.9211,-10.531c1.8734,0.8736 3.1765,1.5338 3.9138,1.9828c0.7396,0.4547 1.3221,1.0613 1.7501,1.825c0.4281,0.7636 0.6302,1.6228 0.6075,2.5733c-0.0227,0.9507 -0.2801,1.9542 -0.769,3.0027c-0.4652,0.9975 -1.0477,1.8162 -1.7436,2.4574c-0.6976,0.6451 -1.4814,1.0545 -2.3585,1.2333c-0.8773,0.1792 -1.722,0.1344 -2.5316,-0.1287c-0.8118,-0.2684 -2.177,-0.8475 -4.0935,-1.7413l-3.185,-1.4853c-1.8734,-0.8734 -3.1768,-1.5339 -3.9164,-1.9886c-0.7372,-0.449 -1.3198,-1.0553 -1.7461,-1.8232c-0.428,-0.7636 -0.6316,-1.6186 -0.6072,-2.5733c0.0227,-0.9504 0.2781,-1.9499 0.7691,-3.0024c0.4651,-0.9978 1.0476,-1.8162 1.7436,-2.4574c0.6959,-0.6415 1.4811,-1.0545 2.3584,-1.2336c0.8773,-0.1792 1.722,-0.1344 2.5299,0.1326c0.8135,0.2648 2.173,0.8459 4.0932,1.7413l3.1853,1.4854zm-8.3769,1.9894c-0.868,-0.4048 -1.4434,-0.616 -1.7328,-0.6316c-0.2838,-0.0173 -0.4967,0.1222 -0.6359,0.4207c-0.1193,0.2554 -0.1108,0.4935 0.0233,0.7185c0.1284,0.2274 0.6744,0.5633 1.6367,1.012l8.695,4.0547c1.084,0.5054 1.7736,0.7693 2.065,0.8002c0.2957,0.0329 0.5185,-0.1171 0.6687,-0.4388c0.1537,-0.3299 0.1058,-0.606 -0.1411,-0.8356c-0.2523,-0.2277 -0.9219,-0.597 -2.0214,-1.1098l-8.5575,-3.9903zm1.6999,-15.6036l2.1784,-3.3543c1.4066,-2.1662 2.4534,-3.5631 3.1488,-4.1967c0.6953,-0.6332 1.3966,-1.0046 2.1081,-1.106c0.7138,-0.1046 1.3833,-0.0213 2.0052,0.2378c0.62,0.263 1.747,0.9227 3.3823,1.9845l6.0364,3.9203c1.5483,1.0055 2.533,1.7482 2.9596,2.2374c0.4255,0.4828 0.673,1.0001 0.7314,1.5548c0.0584,0.5548 -0.0284,1.1339 -0.2531,1.7422c-0.2305,0.6097 -0.6917,1.4471 -1.3879,2.5191l-3.6723,5.6549l-17.2369,-11.194zm5.8598,-2.5705l11.3386,7.3633c0.4178,-0.6432 0.5502,-1.1254 0.3889,-1.442c-0.165,-0.3189 -0.8229,-0.8495 -1.9712,-1.5951l-6.698,-4.3497c-0.7812,-0.5074 -1.2957,-0.8053 -1.548,-0.9023c-0.2512,-0.0907 -0.4879,-0.0842 -0.7053,0.0278c-0.2174,0.112 -0.4889,0.411 -0.805,0.898zm3.1042,-11.3244l5.6095,-6.9273l3.1958,2.588l-2.2442,2.7715l3.0274,2.4516l2.0999,-2.5931l3.0407,2.4625l-2.0996,2.5931l3.5124,2.8446l2.4678,-3.0478l3.1958,2.588l-5.8328,7.2031l-15.9727,-12.9342zm15.4681,-17.945l9.8813,9.5423c1.4774,1.4269 2.416,2.3635 2.8066,2.8012c0.394,0.4402 0.6449,0.9476 0.7469,1.5222c0.1021,0.5743 0.0139,1.1398 -0.2616,1.6869c-0.2784,0.5504 -0.83,1.2526 -1.6518,2.1035l-1.8604,1.9265l-2.5843,-2.4954c0.2415,-0.2126 0.4136,-0.3719 0.5128,-0.4748c0.265,-0.2744 0.4039,-0.5556 0.4235,-0.8438c0.0198,-0.2886 -0.0553,-0.5355 -0.2276,-0.7501c-0.169,-0.2117 -0.5403,-0.5882 -1.0985,-1.1273l-10.4014,-10.0446l3.7145,-3.8466zm6.1807,-5.6376l14.017,15.0316l-3.9107,3.6468l-14.017,-15.0316l3.9107,-3.6468zm12.5002,-10.3875l8.4572,10.8247c0.9578,1.2259 1.5916,2.1217 1.9,2.6784c0.3076,0.5624 0.4694,1.2552 0.485,2.0843c0.0148,0.8357 -0.1916,1.6345 -0.6259,2.4086c-0.4314,0.771 -1.0862,1.5027 -1.9567,2.183c-0.97,0.7577 -1.9491,1.2642 -2.9376,1.5194c-0.9918,0.2579 -1.8703,0.2735 -2.6393,0.0493c-0.7682,-0.2299 -1.4083,-0.5984 -1.9185,-1.1183c-0.5139,-0.5167 -1.4811,-1.6914 -2.9112,-3.5218l-7.4857,-9.5816l4.2103,-3.2896l9.4867,12.1427c0.5525,0.707 0.9448,1.1316 1.1752,1.2651c0.2299,0.1392 0.461,0.1182 0.6965,-0.0657c0.2665,-0.2084 0.3518,-0.4507 0.2622,-0.7274c-0.0955,-0.2772 -0.4581,-0.8186 -1.0879,-1.6245l-9.324,-11.9345l4.2137,-3.2921zm14.0797,3.2817l1.9304,2.9724l-5.6549,3.6725l-1.9306,-2.9727l5.6551,-3.6722zm2.5611,-13.3515l6.6594,12.0144c0.9958,1.7963 1.6194,2.9664 1.8652,3.4993c0.248,0.5363 0.3396,1.0948 0.2693,1.6742c-0.0703,0.5788 -0.32,1.0939 -0.7435,1.5366c-0.4272,0.4451 -1.16,0.9553 -2.1946,1.5288l-2.3426,1.2982l-1.7416,-3.1419c0.2931,-0.1327 0.5043,-0.2347 0.6293,-0.3039c0.3337,-0.1851 0.5485,-0.4133 0.6517,-0.6834c0.1032,-0.2701 0.1038,-0.5281 0.002,-0.7838c-0.0998,-0.2517 -0.3447,-0.7206 -0.7208,-1.3992l-7.0104,-12.647l4.6766,-2.5923zm6.8921,-3.6553l9.6492,18.1471l-4.7214,2.5104l-9.6492,-18.1471l4.7214,-2.5104zm13.9683,-5.7098l1.5404,3.8126l-2.9413,1.1886l6.1589,15.2433l-4.9539,2.0015l-6.1585,-15.2436l-2.9333,1.1852l-1.5403,-3.8129l10.828,-4.3747zm15.8944,1.874l-4.7695,1.3677l-0.4193,-1.4621c-0.1959,-0.6832 -0.3835,-1.1027 -0.5584,-1.2555c-0.1743,-0.1528 -0.4048,-0.1859 -0.6922,-0.1034c-0.3081,0.0884 -0.5057,0.28 -0.591,0.5796c-0.0868,0.2954 -0.0559,0.701 0.0909,1.2136c0.1888,0.6582 0.4196,1.1327 0.6943,1.4147c0.2664,0.2841 0.8682,0.5446 1.8,0.7912c2.6764,0.7021 4.4325,1.4023 5.2778,2.1021c0.8453,0.6996 1.5432,2.0186 2.0987,3.9555c0.4037,1.408 0.5347,2.4928 0.3966,3.2536c-0.138,0.7611 -0.6143,1.5061 -1.4267,2.2261c-0.8163,0.7208 -1.8462,1.2642 -3.0999,1.6236c-1.3745,0.3943 -2.6246,0.4686 -3.7443,0.2263c-1.124,-0.2413 -1.9514,-0.7209 -2.4817,-1.4386c-0.5315,-0.7223 -1.0089,-1.8204 -1.4344,-3.3035l-0.3702,-1.2915l4.7696,-1.3674l0.6891,2.4035c0.2126,0.7412 0.4153,1.1973 0.6097,1.3711c0.197,0.1692 0.4655,0.2092 0.8073,0.1114c0.3416,-0.0981 0.5573,-0.3042 0.6463,-0.6228c0.0902,-0.3143 0.059,-0.7381 -0.0927,-1.2671c-0.3333,-1.1622 -0.7103,-1.8791 -1.1296,-2.1464c-0.4274,-0.265 -1.4023,-0.6301 -2.9171,-1.1021c-1.5225,-0.4827 -2.5435,-0.8526 -3.0702,-1.1165c-0.5219,-0.2651 -1.0196,-0.6951 -1.4839,-1.2921c-0.468,-0.5961 -0.8487,-1.4198 -1.1498,-2.4695c-0.4337,-1.5123 -0.5595,-2.6754 -0.373,-3.4861c0.1828,-0.8095 0.6511,-1.5346 1.3997,-2.1773c0.7498,-0.6389 1.734,-1.1375 2.9546,-1.4876c1.3368,-0.3832 2.5364,-0.4926 3.5966,-0.3322c1.0655,0.163 1.8417,0.5267 2.3386,1.0964c0.4915,0.5667 0.9606,1.6359 1.4108,3.2063l0.2233,0.779zm14.8074,-8.8132l2.1486,13.5674c0.2435,1.5367 0.3637,2.6275 0.3634,3.2639c-0.004,0.6409 -0.1978,1.3252 -0.5862,2.0582c-0.3923,0.7378 -0.9598,1.3365 -1.7152,1.8028c-0.7512,0.4655 -1.6784,0.7881 -2.7697,0.961c-1.2155,0.1924 -2.3176,0.1607 -3.3058,-0.0953c-0.9924,-0.2554 -1.7683,-0.6675 -2.3323,-1.2364c-0.5605,-0.5735 -0.9414,-1.2065 -1.1359,-1.9083c-0.199,-0.701 -0.4751,-2.1974 -0.8385,-4.4915l-1.9023,-12.0096l5.2773,-0.8359l2.4105,15.2195c0.1403,0.8861 0.2775,1.4479 0.4145,1.6761c0.1338,0.2336 0.3461,0.3269 0.6412,0.2804c0.3339,-0.053 0.5261,-0.224 0.5819,-0.5091c0.0507,-0.2886 -0.004,-0.938 -0.1638,-1.9483l-2.3692,-14.9584l5.2815,-0.8365zm9.7696,-1.0457l8.9135,0l0,4.1122l-3.5662,0l0,3.8957l3.3366,0l0,3.9129l-3.3366,0l0,4.5198l3.9214,0l0,4.1123l-9.2687,0l0,-20.5529zm23.0955,6.5976l-4.9495,-0.3461l0.106,-1.5174c0.0496,-0.7089 0.0164,-1.1673 -0.0955,-1.3705c-0.1114,-0.2033 -0.3167,-0.3133 -0.6152,-0.334c-0.3197,-0.0223 -0.5709,0.0902 -0.7534,0.3425c-0.1826,0.2477 -0.2923,0.6398 -0.3297,1.1715c-0.0476,0.6829 0.007,1.2079 0.1684,1.5667c0.1534,0.3583 0.6299,0.8088 1.421,1.3593c2.2748,1.5752 3.6853,2.8337 4.2404,3.7802c0.555,0.9468 0.7599,2.4248 0.6193,4.4351c-0.102,1.461 -0.3501,2.5251 -0.7401,3.193c-0.39,0.6678 -1.0922,1.2053 -2.1019,1.6038c-1.0137,0.3983 -2.1671,0.5565 -3.4685,0.4655c-1.4264,-0.0998 -2.6263,-0.4573 -3.5957,-1.0681c-0.9737,-0.6112 -1.5871,-1.3448 -1.84,-2.2009c-0.2525,-0.8603 -0.3254,-2.0554 -0.218,-3.5946l0.0939,-1.3402l4.9495,0.3461l-0.1743,2.4945c-0.0539,0.7693 -0.0193,1.2671 0.104,1.497c0.1273,0.2265 0.3657,0.3557 0.7203,0.3807c0.3546,0.0246 0.6279,-0.095 0.8207,-0.364c0.1919,-0.2645 0.3075,-0.6735 0.3458,-1.2226c0.0845,-1.2058 -0.0244,-2.0086 -0.3271,-2.4032c-0.311,-0.3954 -1.1024,-1.0718 -2.3644,-2.0333c-1.2654,-0.9745 -2.0985,-1.6713 -2.503,-2.0993c-0.4,-0.4275 -0.7203,-1.0018 -0.9525,-1.7215c-0.2361,-0.7206 -0.312,-1.6248 -0.2358,-2.7142c0.1097,-1.5692 0.3892,-2.7051 0.8416,-3.4032c0.4487,-0.6982 1.1367,-1.2195 2.0602,-1.5673c0.923,-0.3439 2.0183,-0.476 3.2848,-0.3872c1.3876,0.0969 2.5523,0.4042 3.4934,0.9175c0.9457,0.5176 1.5506,1.1248 1.8227,1.8301c0.2682,0.7007 0.343,1.866 0.2291,3.4957l-0.0565,0.8084zm4.3558,-5.6577l5.3155,0.8419c1.438,0.2279 2.5291,0.5145 3.2635,0.8635c0.7387,0.3495 1.2694,0.7667 1.5874,1.2517c0.3215,0.4899 0.5052,1.0494 0.5463,1.6748c0.0411,0.6295 -0.0392,1.5774 -0.2404,2.8488l-0.2801,1.7674c-0.2055,1.2968 -0.4878,2.2221 -0.847,2.7703c-0.3637,0.5525 -0.9278,0.928 -1.6934,1.1358c-0.7645,0.2035 -1.7229,0.2143 -2.874,0.0318l-1.4168,-0.2243l-1.2949,8.1746l-5.2812,-0.8365l3.2151,-20.2998zm4.7316,4.3076l-0.8181,5.1658c0.1485,0.0326 0.2761,0.057 0.3832,0.074c0.4876,0.0771 0.8408,0.0102 1.0661,-0.1953c0.2265,-0.2098 0.3991,-0.6914 0.5176,-1.4406l0.2645,-1.6693c0.1097,-0.6931 0.0748,-1.1636 -0.1111,-1.4037c-0.1848,-0.2443 -0.6174,-0.4224 -1.3022,-0.5309zm18.9034,13.1159c-0.5698,1.9868 -1.0183,3.3772 -1.3462,4.176c-0.3337,0.8013 -0.8413,1.4717 -1.5287,2.0137c-0.6874,0.5423 -1.5044,0.8762 -2.4469,1.0026c-0.9422,0.1265 -1.9738,0.0292 -3.0858,-0.2897c-1.0582,-0.3036 -1.9576,-0.7506 -2.7,-1.3376c-0.7464,-0.5882 -1.273,-1.2986 -1.5871,-2.1368c-0.3144,-0.8385 -0.4023,-1.6795 -0.269,-2.5206c0.1383,-0.8438 0.4969,-2.2827 1.0797,-4.3154l0.9686,-3.3781c0.5697,-1.9871 1.0182,-3.3777 1.3515,-4.1791c0.3283,-0.7985 0.836,-1.4686 1.5276,-2.01c0.6874,-0.542 1.5001,-0.8771 2.4466,-1.0021c0.9425,-0.1264 1.9698,-0.0303 3.0861,0.2897c1.0579,0.3033 1.9573,0.7506 2.6997,1.3377c0.7424,0.587 1.2733,1.298 1.5871,2.1365c0.3144,0.8387 0.4023,1.6798 0.2651,2.5194c-0.1341,0.845 -0.4958,2.2788 -1.0797,4.3154l-0.9686,3.3784zm-3.2752,-7.9625c0.2639,-0.9207 0.3824,-1.5222 0.3524,-1.8105c-0.027,-0.2829 -0.1982,-0.4714 -0.5148,-0.5621c-0.271,-0.0777 -0.5049,-0.0321 -0.7064,0.1355c-0.2041,0.1621 -0.4507,0.754 -0.7433,1.7747l-2.6444,9.2223c-0.3297,1.1497 -0.4827,1.8722 -0.4674,2.1651c0.0139,0.297 0.1967,0.4935 0.538,0.5916c0.3498,0.1003 0.6151,0.01 0.803,-0.2702c0.1857,-0.2849 0.4456,-1.0037 0.7801,-2.1699l2.6028,-9.0765zm9.8802,-2.2967l3.5546,1.2938c2.3698,0.8625 3.9416,1.5361 4.7137,2.0245c0.7725,0.4887 1.2861,1.2061 1.5427,2.1481c0.2551,0.9459 0.0841,2.2393 -0.5162,3.8882c-0.5468,1.5027 -1.1019,2.4446 -1.6648,2.8253c-0.5587,0.3821 -1.4083,0.4232 -2.5447,0.125c0.9031,0.6101 1.4548,1.1844 1.6458,1.7241c0.1882,0.5343 0.2662,0.9915 0.2217,1.3674c-0.0406,0.3773 -0.3464,1.345 -0.9142,2.9047l-1.8541,5.0938l-4.6625,-1.6968l2.3358,-6.4173c0.3764,-1.0344 0.5235,-1.7048 0.4513,-2.0126c-0.074,-0.3036 -0.4558,-0.5854 -1.1438,-0.836l-3.17,8.71l-5.025,-1.8289l7.0297,-19.3133zm3.8228,5.1313l-1.5636,4.2959c0.5618,0.2044 0.9847,0.271 1.2693,0.199c0.2843,-0.0717 0.582,-0.5352 0.8918,-1.3861l0.3852,-1.0588c0.224,-0.6148 0.2594,-1.0539 0.1092,-1.3252c-0.1503,-0.2715 -0.5137,-0.5142 -1.0919,-0.7248zm20.978,6.0755l-1.8669,3.6638l-2.8264,-1.44l-7.4639,14.6486l-4.7605,-2.4256l7.4639,-14.6486l-2.8185,-1.4363l1.8669,-3.6638l10.4054,5.3019zm7.1448,4.3707l-10.8913,17.4297l-4.5346,-2.8335l10.8913,-17.43l4.5346,2.8338zm13.1845,9.2492l-14.0142,15.2776l-6.6453,-4.6531l9.2614,-18.6054l4.6182,3.2334c-2.7136,5.0089 -5.0803,9.1971 -7.0915,12.5604c2.494,-3.0782 4.7489,-5.7844 6.7592,-8.127l2.494,-2.9197l4.6182,3.2338zm3.469,19.8264c-1.4097,1.5117 -2.4403,2.5472 -3.0951,3.1096c-0.6614,0.5627 -1.4179,0.9295 -2.2765,1.1004c-0.8587,0.1709 -1.7382,0.0978 -2.6354,-0.2174c-0.8969,-0.3152 -1.7717,-0.8703 -2.6181,-1.6594c-0.805,-0.7506 -1.4031,-1.5574 -1.798,-2.4174c-0.398,-0.8629 -0.5451,-1.7348 -0.4445,-2.6243c0.1009,-0.8898 0.4045,-1.6793 0.9048,-2.3681c0.5063,-0.6891 1.4789,-1.8082 2.9211,-3.3548l2.397,-2.5702c1.4097,-1.5117 2.4404,-2.5475 3.1014,-3.1101c0.6548,-0.5624 1.4114,-0.929 2.2734,-1.0973c0.8586,-0.171 1.7348,-0.1004 2.6351,0.2177c0.8969,0.3152 1.7685,0.8671 2.6181,1.6591c0.805,0.7509 1.4034,1.5576 1.7983,2.4177c0.3948,0.86 0.5451,1.7348 0.4441,2.6243c-0.1009,0.8898 -0.4042,1.6792 -0.9079,2.3649c-0.5031,0.6922 -1.476,1.8054 -2.9211,3.3551l-2.3967,2.5702zm0.6968,-8.5816c0.6531,-0.7005 1.0318,-1.1827 1.1358,-1.4531c0.1043,-0.2642 0.0374,-0.5099 -0.2035,-0.7347c-0.2061,-0.1922 -0.4351,-0.2577 -0.6908,-0.1999c-0.2557,0.0519 -0.7438,0.4675 -1.4681,1.2442l-6.5429,7.0163c-0.8158,0.8748 -1.2801,1.4491 -1.3995,1.7169c-0.1224,0.271 -0.0487,0.529 0.2109,0.7713c0.2662,0.2483 0.5434,0.288 0.8382,0.1239c0.2945,-0.1695 0.8527,-0.6919 1.6801,-1.5792l6.4398,-6.9057zm16.4333,8.8897l-19.937,9.7523l-2.6007,-2.8885l19.9627,-9.7234l2.575,2.8596zm8.1782,11.9293l-3.3684,2.3587l-1.8196,-2.5985l-13.4674,9.4297l-3.0645,-4.3764l13.4674,-9.43l-1.8145,-2.5914l3.3684,-2.3584l6.6986,9.5663zm2.0171,2.365l1.8913,3.276c1.2611,2.1841 2.0322,3.7102 2.3097,4.5808c0.2775,0.8708 0.2097,1.7503 -0.199,2.637c-0.4127,0.8884 -1.3751,1.7694 -2.8948,2.647c-1.385,0.7994 -2.4154,1.1642 -3.0911,1.0939c-0.6738,-0.0663 -1.3513,-0.5808 -2.0299,-1.5398c0.2996,1.048 0.3532,1.8425 0.1525,2.3786c-0.1993,0.5303 -0.4334,0.9309 -0.709,1.19c-0.2738,0.263 -1.1301,0.8076 -2.5676,1.6375l-4.6944,2.7105l-2.4809,-4.297l5.9142,-3.4146c0.9533,-0.5505 1.497,-0.9695 1.6392,-1.2515c0.1384,-0.2804 0.0273,-0.7416 -0.3387,-1.3757l-8.0271,4.6347l-2.6737,-4.631l17.7993,-10.2764zm-0.3699,6.3881l-3.9591,2.2856c0.299,0.5179 0.5802,0.8408 0.8441,0.9686c0.2642,0.1278 0.7903,-0.036 1.5747,-0.4887l0.9754,-0.5632c0.5666,-0.3272 0.8762,-0.6407 0.9354,-0.9454c0.0595,-0.3044 -0.0629,-0.724 -0.3705,-1.2569zm11.9971,15.5704l-17.3342,11.4588l-2.313,-4.9603l3.2383,-1.8017l-0.8113,-1.7399l-3.4838,1.2753l-2.3386,-5.0151l19.7754,-6.2234l3.2672,7.0063zm-13.1743,3.0206c1.9936,-1.2308 4.4881,-2.69 7.4713,-4.3823c-3.7908,1.1701 -6.5379,2.0778 -8.244,2.7252l0.7727,1.6571zm15.7357,2.9566l1.2359,3.8041c0.7979,2.4562 1.2248,4.149 1.2795,5.0879c0.0545,0.9391 -0.098,1.7178 -0.4668,2.3343c-0.368,0.6208 -0.8541,1.0885 -1.4471,1.4088c-0.5942,0.3161 -1.8162,0.777 -3.6706,1.3797l-6.8457,2.224c-1.7555,0.5706 -2.9525,0.8683 -3.6011,0.8921c-0.6429,0.0269 -1.2008,-0.1063 -1.6685,-0.4102c-0.468,-0.3036 -0.8634,-0.7353 -1.1948,-1.2929c-0.3288,-0.5629 -0.6894,-1.4482 -1.0845,-2.664l-2.0835,-6.4125l19.5472,-6.3513zm-1.6901,6.1716l-12.8582,4.178c0.237,0.7293 0.5284,1.1358 0.8759,1.2098c0.3518,0.0725 1.1781,-0.1052 2.4803,-0.5281l7.5955,-2.4679c0.8861,-0.288 1.4411,-0.5003 1.6752,-0.6355c0.2285,-0.1377 0.3725,-0.326 0.4224,-0.5652c0.0496,-0.2395 -0.0119,-0.6389 -0.1911,-1.1911zm7.7718,14.5715l-20.0259,4.6233l-1.203,-5.2101l20.0262,-4.6236l1.2027,5.2104zm-6.1886,16.9815l-0.9278,-5.262l3.5249,-0.6213c1.0242,-0.1806 1.6537,-0.3532 1.8901,-0.5094c0.2325,-0.1554 0.3167,-0.4252 0.2489,-0.8093c-0.0768,-0.4354 -0.2786,-0.6815 -0.6069,-0.7469c-0.3316,-0.0604 -1.008,-0.003 -2.0321,0.178l-9.4014,1.6577c-0.9859,0.1737 -1.6155,0.3464 -1.8938,0.5145c-0.2818,0.1729 -0.3853,0.4595 -0.313,0.8691c0.0692,0.3929 0.2636,0.6225 0.5876,0.6885c0.3198,0.0669 1.0355,0.006 2.1447,-0.1891l2.5351,-0.447l0.9277,5.262l-0.7852,0.1383c-2.0911,0.3688 -3.6025,0.4813 -4.5292,0.341c-0.9266,-0.14 -1.8107,-0.6619 -2.6464,-1.5573c-0.8354,-0.8958 -1.389,-2.0872 -1.65,-3.568c-0.2724,-1.5449 -0.2149,-2.8664 0.1681,-3.9634c0.3829,-1.0973 1.0377,-1.8992 1.9666,-2.3973c0.9326,-0.4992 2.3894,-0.9229 4.3739,-1.2727l5.9102,-1.0421c1.4596,-0.2573 2.5611,-0.3991 3.3083,-0.4294c0.7475,-0.0266 1.5035,0.144 2.2661,0.5244c0.7613,0.3762 1.4161,0.9689 1.9593,1.7796c0.5391,0.8116 0.9139,1.7884 1.1148,2.9276c0.2739,1.5534 0.1968,2.8871 -0.2233,3.9997c-0.4241,1.1132 -1.0542,1.9063 -1.8941,2.3842c-0.8405,0.474 -2.2082,0.8779 -4.0987,1.2113l-1.9244,0.3393zm9.4408,7.5705l-20.4747,1.7912l-0.466,-5.3269l20.4747,-1.7915l0.466,5.3272zm-11.7819,16.2192c-2.0671,0 -3.5272,-0.0476 -4.3852,-0.1428c-0.8623,-0.0998 -1.6467,-0.4031 -2.3573,-0.9145c-0.7107,-0.5114 -1.2569,-1.2044 -1.6382,-2.0755c-0.3812,-0.8711 -0.572,-1.8893 -0.572,-3.0464c0,-1.1007 0.182,-2.0886 0.5417,-2.9639c0.3597,-0.8796 0.8972,-1.5817 1.6163,-2.1147c0.7195,-0.5331 1.5038,-0.8495 2.3488,-0.9532c0.8493,-0.0998 2.3312,-0.1517 4.4459,-0.1517l3.5144,0c2.067,0 3.5274,0.0476 4.3897,0.1471c0.858,0.0955 1.6421,0.3989 2.353,0.9145c0.7107,0.5113 1.2566,1.2002 1.6379,2.0755c0.3812,0.8711 0.572,1.885 0.572,3.0464c0,1.1007 -0.182,2.0886 -0.5417,2.9639c-0.3597,0.8753 -0.8969,1.5817 -1.6163,2.1146c-0.7194,0.5332 -1.5038,0.8496 -2.3488,0.9491c-0.8492,0.104 -2.3269,0.1516 -4.4458,0.1516l-3.5144,0zm6.7512,-5.343c0.9579,0 1.5687,-0.0519 1.8375,-0.1601c0.2644,-0.1041 0.3985,-0.3206 0.3985,-0.65c0,-0.2818 -0.1083,-0.4941 -0.3248,-0.6415c-0.2124,-0.1517 -0.8493,-0.2254 -1.9112,-0.2254l-9.5938,0c-1.196,0 -1.9327,0.0522 -2.2099,0.1474c-0.2818,0.0953 -0.4204,0.3252 -0.4204,0.6804c0,0.3639 0.1602,0.5938 0.4811,0.6976c0.3248,0.0997 1.0876,0.1516 2.3008,0.1516l9.4422,0zm3.178,21.8398l-20.3531,-2.8604l0.652,-4.6386l9.6389,-1.455l-9.2517,-1.3003l0.6219,-4.424l20.3528,2.8604l-0.6217,4.424l-9.5833,1.6816l9.1658,1.288l-0.6216,4.4243zm-2.6218,12.6502l-20.74,-1.2807l1.1381,-5.3535l3.6703,0.5102l0.3994,-1.8779l-3.5498,-1.078l1.1503,-5.4125l19.5389,6.9307l-1.6072,7.5617zm-12.3395,-5.5159c2.3329,0.2168 5.2033,0.5524 8.6043,0.9963c-3.7318,-1.347 -6.4718,-2.275 -8.2242,-2.785l-0.3801,1.7887zm8.805,16.6671l-15.5449,-5.3526l-1.0582,3.073l-3.8883,-1.3388l2.7992,-8.1289l19.4329,6.6914l-1.7407,5.0559z" id="svg_20"/>
    <path stroke="null" fill="#000200" fill-rule="evenodd" d="m10699.508389,7584.42094l6.611,7.8786l-3.6346,3.0501l-2.6453,-3.1524l-3.4435,2.8893l2.4749,2.9495l-3.4585,2.9018l-2.475,-2.9492l-3.9948,3.3523l2.9086,3.4665l-3.6349,3.0501l-6.8745,-8.193l18.1666,-15.2436zm12.7012,23.4337l-4.1181,-3.9767l1.2191,-1.2625c0.5698,-0.5899 0.8805,-1.0197 0.9326,-1.2822c0.0519,-0.2627 -0.0479,-0.5119 -0.2962,-0.7517c-0.2659,-0.2568 -0.5717,-0.3436 -0.9201,-0.256c-0.3453,0.0837 -0.7331,0.3484 -1.1602,0.7909c-0.5488,0.5683 -0.8901,1.0732 -1.0134,1.51c-0.1304,0.4303 -0.0428,1.1818 0.248,2.2553c0.8425,3.0792 1.1557,5.2378 0.9445,6.4862c-0.2117,1.2487 -1.127,2.7071 -2.7419,4.3795c-1.1741,1.2158 -2.1827,1.9724 -3.0226,2.2734c-0.8399,0.3013 -1.8593,0.2554 -3.047,-0.1412c-1.1917,-0.3999 -2.3286,-1.1154 -3.4112,-2.1611c-1.1871,-1.1463 -1.9825,-2.3522 -2.3865,-3.611c-0.4073,-1.2623 -0.4053,-2.3658 0.006,-3.3101c0.415,-0.9479 1.237,-2.0582 2.4735,-3.3386l1.0769,-1.1149l4.1181,3.977l-2.0038,2.075c-0.6185,0.6403 -0.9569,1.1061 -1.019,1.4003c-0.055,0.2945 0.0598,0.5862 0.3546,0.8708c0.2951,0.2852 0.6259,0.3818 0.9952,0.2869c0.3663,-0.0913 0.7716,-0.3668 1.2127,-0.8238c0.9692,-1.0034 1.4681,-1.7937 1.4933,-2.3669c0.0181,-0.5803 -0.1792,-1.7649 -0.5817,-3.5507c-0.3957,-1.8003 -0.6154,-3.0339 -0.6554,-3.7122c-0.0365,-0.6747 0.1061,-1.4196 0.4352,-2.2281c0.3251,-0.8121 0.9289,-1.6676 1.8042,-2.5738c1.2609,-1.3057 2.3499,-2.1028 3.2681,-2.384c0.9147,-0.2846 1.9088,-0.2349 2.9834,0.1426c1.071,0.3807 2.1371,1.0763 3.1907,2.094c1.1546,1.1151 1.9559,2.2501 2.4075,3.4021c0.4513,1.1591 0.536,2.1444 0.2531,2.9696c-0.2826,0.8181 -1.0806,1.9032 -2.3899,3.2593l-0.6497,0.6726zm16.996,4.4277l-2.986,3.6876l-2.8443,-2.3034l-11.9384,14.7427l-4.7908,-3.8798l11.9381,-14.7424l-2.8367,-2.2972l2.9861,-3.6876l10.472,8.4801zm8.4648,4.542l-8.8004,22.303l-5.4692,-3.1575l1.8686,-3.8463l-1.9185,-1.1075l-2.4485,3.5112l-5.5293,-3.1926l14.5723,-18.9703l7.725,4.46zm-10.4525,11.5744c1.0696,-2.4828 2.4611,-5.5128 4.161,-9.0867c-2.8091,3.615 -4.8041,6.2906 -5.9885,8.0317l1.8275,1.055zm14.8,-9.2497l4.1828,1.9505c2.7009,1.2594 4.4651,2.2312 5.3008,2.924c0.8354,0.6933 1.3723,1.4343 1.6021,2.2314c0.2345,0.7988 0.2464,1.5769 0.0502,2.3292c-0.201,0.7503 -0.7736,2.1439 -1.7246,4.1834l-3.5098,7.5268c-0.9,1.9304 -1.5906,3.1751 -2.081,3.7409c-0.4833,0.5635 -1.0346,0.9298 -1.6591,1.0857c-0.6242,0.1556 -1.2999,0.1494 -2.0313,-0.01c-0.7339,-0.1655 -1.7645,-0.5578 -3.1014,-1.1812l-7.0511,-3.2879l10.0224,-21.4928zm3.8781,6.2827l-6.5928,14.1381c0.8025,0.3742 1.3748,0.4481 1.7104,0.2131c0.3379,-0.2398 0.8385,-1.0766 1.5063,-2.5086l3.8945,-8.3517c0.4542,-0.9743 0.7121,-1.6095 0.7818,-1.9137c0.0635,-0.3016 0.0182,-0.5709 -0.1448,-0.8011c-0.1627,-0.2304 -0.5479,-0.4929 -1.1554,-0.7761zm20.0217,17.564c-0.6574,2.2927 -1.1747,3.8974 -1.5534,4.8186c-0.3847,0.925 -0.9706,1.6983 -1.7637,2.3239c-0.7932,0.6256 -1.7357,1.0105 -2.8231,1.1568c-1.0876,0.1457 -2.2776,0.0335 -3.5609,-0.3348c-1.2208,-0.3498 -2.2589,-0.8659 -3.1152,-1.5434c-0.8612,-0.6786 -1.4692,-1.4979 -1.8312,-2.465c-0.3626,-0.9675 -0.464,-1.9381 -0.3107,-2.9087c0.1596,-0.9737 0.5735,-2.6336 1.2458,-4.9793l1.1177,-3.8979c0.6577,-2.2927 1.1747,-3.8971 1.5597,-4.8218c0.3787,-0.9215 0.9643,-1.6948 1.7623,-2.319c0.7934,-0.6256 1.7311,-1.0119 2.8233,-1.1568c1.0873,-0.146 2.2725,-0.0349 3.5606,0.3345c1.2211,0.3501 2.2586,0.8663 3.1152,1.5435c0.8564,0.6772 1.4692,1.4978 1.8315,2.4652c0.3626,0.9675 0.4638,1.9381 0.3056,2.907c-0.1548,0.9751 -0.572,2.6291 -1.2458,4.9793l-1.1177,3.8979zm-3.7789,-9.1873c0.3047,-1.0622 0.4413,-1.7567 0.4065,-2.0889c-0.0312,-0.3263 -0.2288,-0.5442 -0.5942,-0.6491c-0.3123,-0.0893 -0.5825,-0.0369 -0.8146,0.1567c-0.2359,0.1871 -0.5202,0.8703 -0.8578,2.0478l-3.0515,10.6412c-0.3801,1.3264 -0.5567,2.16 -0.5391,2.4982c0.0161,0.3424 0.2267,0.5695 0.6207,0.6823c0.4037,0.116 0.7096,0.0111 0.9267,-0.3115c0.214,-0.3288 0.5145,-1.158 0.9003,-2.5039l3.003,-10.4728zm14.1624,-2.5991l4.5703,0.6423c2.9509,0.4147 4.9224,0.828 5.9242,1.2464c1.0015,0.4187 1.7317,0.9706 2.1844,1.6654c0.4577,0.6956 0.6967,1.436 0.729,2.213c0.0272,0.7764 -0.1131,2.2765 -0.426,4.5045l-1.156,8.2242c-0.2965,2.1092 -0.5927,3.5013 -0.8963,4.1859c-0.2974,0.6803 -0.7175,1.1917 -1.2691,1.5233c-0.5516,0.3314 -1.1996,0.523 -1.9454,0.5848c-0.75,0.0564 -1.8505,-0.0176 -3.3111,-0.2228l-7.7043,-1.0828l3.3003,-23.4842zm5.5455,4.8742l-2.1711,15.4482c0.8768,0.123 1.4457,0.0264 1.698,-0.2965c0.2531,-0.328 0.4872,-1.2747 0.7069,-2.8392l1.2827,-9.1256c0.1497,-1.0644 0.2103,-1.7475 0.1882,-2.0585c-0.0275,-0.307 -0.1496,-0.5516 -0.3727,-0.7239c-0.2231,-0.173 -0.6684,-0.3113 -1.332,-0.4045zm10.794,-2.5189l10.2787,0.3591l-0.1655,4.7418l-4.1125,-0.1434l-0.1571,4.4923l3.8478,0.1344l-0.1576,4.5119l-3.8478,-0.1344l-0.182,5.2121l4.5227,0.1579l-0.1658,4.7421l-10.6886,-0.3733l0.8277,-23.7005zm27.9873,-1.0023l5.5834,23.3169l-6.2909,0.5505l-0.6755,-4.2222l-2.2068,0.193l0.008,4.2806l-6.3606,0.5565l1.0562,-23.8981l8.8862,-0.7772zm-1.9233,15.4763c-0.5482,-2.6473 -1.146,-5.9276 -1.8037,-9.8303c-0.2273,4.5726 -0.3271,7.9087 -0.2985,10.0142l2.1022,-0.1839zm11.3545,-17.117l4.5893,18.4064l3.6388,-0.9073l1.148,4.604l-9.6256,2.3998l-5.737,-23.0105l5.9865,-1.4924zm16.4449,-4.79l11.0585,21.2737l-5.9709,2.056l-1.677,-3.9334l-2.0942,0.7212l1.0431,4.1516l-6.0366,2.0786l-4.7568,-23.4436l8.4339,-2.9041zm1.8779,15.482c-1.1721,-2.4361 -2.546,-5.4743 -4.1281,-9.1018c0.8856,4.4915 1.5959,7.7528 2.1328,9.7889l1.9953,-0.6871zm19.0724,-14.6722l-5.5874,2.6054l-0.9108,-1.9528c-0.5726,-1.228 -0.9861,-1.9732 -1.2361,-2.2374c-0.2523,-0.2574 -0.5735,-0.2951 -0.9723,-0.1091c-0.349,0.1627 -0.5185,0.4019 -0.5208,0.7282c0,0.32 0.2557,1.0341 0.7668,2.1305l4.8096,10.3136c0.4501,0.9654 0.8092,1.5704 1.0754,1.8212c0.2687,0.2444 0.5851,0.2846 0.9564,0.1114c0.4082,-0.1905 0.6044,-0.4915 0.593,-0.9056c-0.0175,-0.4165 -0.2576,-1.1211 -0.7248,-2.1226l-1.1874,-2.5467l-1.1285,0.5261l-1.5233,-3.2669l6.5435,-3.0512l5.3798,11.537l-3.5166,1.6398l-1.2351,-1.2996c-0.0697,0.8436 -0.32,1.5613 -0.7435,2.1673c-0.4258,0.601 -1.0321,1.088 -1.8204,1.4556c-0.938,0.4374 -1.925,0.616 -2.952,0.5431c-1.0335,-0.0751 -1.9162,-0.3475 -2.6572,-0.8243c-0.7387,-0.4717 -1.3314,-1.0562 -1.7844,-1.7441c-0.4487,-0.69 -1.0205,-1.7748 -1.7096,-3.2522l-2.9772,-6.3848c-0.9573,-2.0528 -1.5438,-3.5943 -1.7549,-4.6267c-0.2132,-1.0372 0.0238,-2.1849 0.716,-3.4455c0.6854,-1.2631 1.8587,-2.2847 3.5263,-3.0623c1.6359,-0.7628 3.1515,-1.0613 4.5451,-0.8889c1.3909,0.1675 2.4721,0.6401 3.2295,1.4125c0.7571,0.7722 1.5457,2.0375 2.3677,3.8001l0.4332,0.9289zm17.4498,-4.6068c1.2991,2.0001 2.1705,3.4432 2.6175,4.3336c0.4456,0.8969 0.6449,1.8465 0.5967,2.8553c-0.0482,1.0094 -0.3762,1.9732 -0.9791,2.8897c-0.6035,0.9164 -1.4689,1.7407 -2.5886,2.4681c-1.0653,0.6916 -2.1356,1.1364 -3.2088,1.3385c-1.0772,0.2044 -2.0943,0.1259 -3.0617,-0.2353c-0.9681,-0.3611 -1.7671,-0.9215 -2.399,-1.6738c-0.6301,-0.7592 -1.6115,-2.1606 -2.9404,-4.2072l-2.2087,-3.4007c-1.2989,-2.0002 -2.1705,-3.4433 -2.6158,-4.3405c-0.4471,-0.8903 -0.6466,-1.8396 -0.5942,-2.8513c0.0485,-1.0092 0.3719,-1.9704 0.9791,-2.8897c0.6035,-0.9164 1.465,-1.7382 2.5886,-2.4678c1.0653,-0.6919 2.1356,-1.1364 3.2088,-1.3385c1.0729,-0.2021 2.0943,-0.1262 3.062,0.235c0.968,0.3611 1.7669,0.9215 2.3944,1.6767c0.6344,0.7565 1.609,2.1566 2.9407,4.2069l2.2085,3.401zm-9.413,-3.1757c-0.6018,-0.9266 -1.0364,-1.4853 -1.3099,-1.6772c-0.2665,-0.1905 -0.5607,-0.1843 -0.8796,0.0226c-0.2724,0.1769 -0.4099,0.4153 -0.4161,0.7175c-0.0136,0.3007 0.3155,0.9635 0.9827,1.991l6.029,9.2841c0.7515,1.1574 1.2649,1.8374 1.5316,2.046c0.269,0.2126 0.5786,0.2024 0.9224,-0.0207c0.3523,-0.229 0.4737,-0.5284 0.3728,-0.9039c-0.1078,-0.3773 -0.5366,-1.1481 -1.2989,-2.3222l-5.934,-9.1372zm12.5906,-16.4384l17.3821,16.5144l-4.9765,3.888l-2.8662,-3.1731l-1.7452,1.3634l2.338,3.5859l-5.0312,3.9308l-12.1301,-20.6178l7.0291,-5.4916zm6.8159,14.027c-1.9015,-1.9216 -4.1896,-4.3469 -6.8666,-7.2618c2.2997,3.9586 4.0331,6.8108 5.2038,8.5609l1.6628,-1.2991zm11.0724,-20.9532l-4.1181,3.9771l-1.2189,-1.2626c-0.5698,-0.5899 -0.9885,-0.9153 -1.249,-0.9765c-0.2608,-0.0613 -0.5133,0.0297 -0.7617,0.2695c-0.2658,0.2569 -0.3634,0.5593 -0.288,0.9108c0.0718,0.3481 0.3229,0.7447 0.7501,1.1872c0.5488,0.5683 1.0412,0.9269 1.4737,1.0652c0.4252,0.1454 1.1795,0.0842 2.2624,-0.1692c3.107,-0.7342 5.2752,-0.972 6.5154,-0.7172c1.2401,0.2552 2.666,1.2206 4.2812,2.8931c1.1738,1.2158 1.8949,2.2501 2.1665,3.0999c0.2718,0.8499 0.1902,1.8669 -0.2475,3.0402c-0.4413,1.1769 -1.1962,2.2881 -2.279,3.3338c-1.1869,1.1464 -2.42,1.8992 -3.6922,2.2587c-1.2756,0.3631 -2.3782,0.3226 -3.3077,-0.1214c-0.9326,-0.4475 -2.0138,-1.3081 -3.2502,-2.5886l-1.0766,-1.1148l4.1181,-3.977l2.0041,2.0752c0.6183,0.6401 1.0718,0.9947 1.3638,1.067c0.2922,0.0652 0.5879,-0.0391 0.8827,-0.324c0.2951,-0.2849 0.4031,-0.612 0.3212,-0.9845c-0.0783,-0.3693 -0.3396,-0.7841 -0.7807,-1.2407c-0.9692,-1.0038 -1.7416,-1.5299 -2.3133,-1.5749c-0.5795,-0.0386 -1.7703,0.1173 -3.5692,0.4575c-1.8127,0.3322 -3.0534,0.5091 -3.7326,0.5252c-0.6755,0.0131 -1.4154,-0.1556 -2.2116,-0.5125c-0.8002,-0.3532 -1.6342,-0.9867 -2.5095,-1.893c-1.2606,-1.3056 -2.0191,-2.4222 -2.268,-3.3494c-0.2529,-0.9241 -0.1684,-1.9159 0.2463,-2.9766c0.4181,-1.0571 1.1506,-2.0982 2.2042,-3.1159c1.1546,-1.1148 2.3171,-1.8759 3.4841,-2.287c1.1741,-0.4107 2.1617,-0.4609 2.9767,-0.1494c0.8076,0.311 1.8643,1.1464 3.1736,2.5022l0.6497,0.6726z" id="svg_19"/>
    <path stroke="#ffffff" fill="#ffffff" fill-rule="evenodd" stroke-width="7.0866" stroke-linecap="round" stroke-linejoin="round" d="m10720.311889,7476.51594l21.5665,0l0,9.7973l-8.8268,0l0,9.281l7.8563,0l0,9.3223l-7.8563,0l0,20.565l-12.7397,0l0,-48.9656zm40.2318,0l0,32.7262c0,4.8935 -0.0516,8.0527 -0.1547,9.4465c-0.1032,1.404 -0.5576,2.6736 -1.3731,3.799c-0.8156,1.1253 -1.9307,1.91 -3.3242,2.3437c-1.404,0.4334 -3.5207,0.6502 -6.3389,0.6502l-6.3802,0l0,-8.5583c0.764,0.0618 1.3215,0.0929 1.6623,0.0929c0.9085,0 1.6208,-0.2273 2.1472,-0.6712c0.5267,-0.4439 0.826,-0.9808 0.9085,-1.6311c0.0828,-0.64 0.1137,-1.8995 0.1137,-3.7476l0,-34.4503l12.7394,0zm4.9244,0l21.236,0l0,9.7973l-8.4963,0l0,9.281l7.9492,0l0,9.3223l-7.9492,0l0,10.7676l9.343,0l0,9.7974l-22.0827,0l0,-48.9656zm40.3455,24.6739l0,8.4446l-16.0639,0l0,-8.4446l16.0639,0zm29.2782,-24.6739l0,9.7973l-7.5572,0l0,39.1683l-12.7292,0l0,-39.1683l-7.5362,0l0,-9.7973l27.8226,0zm22.4232,0l7.2884,48.9656l-13.0388,0l-0.6298,-8.8061l-4.5735,0l-0.7534,8.8061l-13.1837,0l6.4732,-48.9656l18.4176,0zm-6.7414,31.4875c-0.6505,-5.544 -1.2906,-12.3988 -1.9409,-20.5444c-1.2906,9.3637 -2.0959,16.2085 -2.4159,20.5444l4.3568,0zm28.948,-31.4875l0,39.1682l7.7428,0l0,9.7974l-20.4826,0l0,-48.9656l12.7398,0z" id="svg_18"/>
    <path stroke="#ffffff" fill="#000200" fill-rule="evenodd" stroke-width="0.216" d="m10720.311889,7476.51594l21.5665,0l0,9.7973l-8.8268,0l0,9.281l7.8563,0l0,9.3223l-7.8563,0l0,20.565l-12.7397,0l0,-48.9656zm40.2318,0l0,32.7262c0,4.8935 -0.0516,8.0527 -0.1547,9.4465c-0.1032,1.404 -0.5576,2.6736 -1.3731,3.799c-0.8156,1.1253 -1.9307,1.91 -3.3242,2.3437c-1.404,0.4334 -3.5207,0.6502 -6.3389,0.6502l-6.3802,0l0,-8.5583c0.764,0.0618 1.3215,0.0929 1.6623,0.0929c0.9085,0 1.6208,-0.2273 2.1472,-0.6712c0.5267,-0.4439 0.826,-0.9808 0.9085,-1.6311c0.0828,-0.64 0.1137,-1.8995 0.1137,-3.7476l0,-34.4503l12.7394,0zm4.9244,0l21.236,0l0,9.7973l-8.4963,0l0,9.281l7.9492,0l0,9.3223l-7.9492,0l0,10.7676l9.343,0l0,9.7974l-22.0827,0l0,-48.9656zm40.3455,24.6739l0,8.4446l-16.0639,0l0,-8.4446l16.0639,0zm29.2782,-24.6739l0,9.7973l-7.5572,0l0,39.1683l-12.7292,0l0,-39.1683l-7.5362,0l0,-9.7973l27.8226,0zm22.4232,0l7.2884,48.9656l-13.0388,0l-0.6298,-8.8061l-4.5735,0l-0.7534,8.8061l-13.1837,0l6.4732,-48.9656l18.4176,0zm-6.7414,31.4875c-0.6505,-5.544 -1.2906,-12.3988 -1.9409,-20.5444c-1.2906,9.3637 -2.0959,16.2085 -2.4159,20.5444l4.3568,0zm28.948,-31.4875l0,39.1682l7.7428,0l0,9.7974l-20.4826,0l0,-48.9656l12.7398,0z" id="svg_17"/>
   </g>
  </g>
 </g>
</svg>